<svg xmlns="http://www.w3.org/2000/svg" viewBox="0 0 1920 10984"><defs><style>.cls-1{fill:#ababab;}</style></defs><g id="r_copy_2" data-name="r copy 2"><path class="cls-1" d="M414,903.3q13.26-42,30-81.65l-1.23-2.2q-17.31,40.84-30.7,83.25c-50.44,159.83-53,333.18-7.69,515.23Q432,1529,483.27,1644.39c.35-1,.69-1.89,1-2.83C379.17,1403.75,336.24,1149.57,414,903.3Z"/><path class="cls-1" d="M428,8978c-4.37-129.93,5.4-267.35,29.83-418.44-.37-1.89-.75-3.8-1.11-5.69-48.51,296.64-40.69,541,18.44,771.44.31-1.57.63-3.14.93-4.72C447.55,9208.21,432,9095.57,428,8978Z"/><path class="cls-1" d="M1285,10684.56c-265.33-355.91-474.9-637-620.3-901.74-87.59-159.47-149-308.37-187.39-457.69-.3,1.56-.61,3.12-.92,4.68,108.95,419.55,388.08,794,807,1356l5.86,7.85,630.79,818v-3.27l-629.2-815.94Z"/><path class="cls-1" d="M1115.13,201.07c-169.7,75.31-313.6,167.62-427.72,274.34C579.17,576.63,497.48,691.28,443.73,817.15l1.22,2.18C691.72,238.42,1475.54,36.57,1920,5.76v-2c-105.73,7.42-223,24.13-336.49,48.2C1415.31,87.63,1257.73,137.79,1115.13,201.07Z"/><path class="cls-1" d="M468,8500.54c31.56-173.13,81.69-365.06,153.26-586.77,130.65-404.73,330.93-907,669.69-1679.37,119-271.32,220-537.38,300.22-790.79,74.94-236.76,133.48-467.95,174-687.13,72.51-392.52,89.38-755.16,50.12-1077.85-17.15-141-45.2-274.87-83.39-398-34.69-111.83-78-215.76-128.73-308.91-45.87-84.22-97.63-159.39-153.83-223.44-51-58.13-104.42-105.78-158.68-141.58-251.18-186.33-621.6-549.51-805.06-962.35l-1,2.77q57,127.62,142,258.56c91,140,203.43,278.83,334.21,412.66,105.64,108.12,222.37,211.09,328.74,290,54.16,35.74,107.43,83.27,158.32,141.27,56.11,63.94,107.78,139,153.58,223.08,50.67,93,93.93,196.83,128.58,308.54,38.15,123,66.18,256.8,83.32,397.65,39.23,322.49,22.37,684.93-50.11,1077.24-84,454.68-243.49,951.78-474.06,1477.49-475.69,1084.63-743.26,1783-831.29,2313.76.37,1.89.73,3.77,1.1,5.65Q463.15,8527,468,8500.54Z"/><path class="cls-1" d="M305.5,1996.18c76.8-118.15,136.7-235,179-349.06l-1.24-2.73C382.6,1917.21,193.4,2172.91,0,2376.48v2.58C118.57,2254.46,221.24,2125.82,305.5,1996.18Z"/><path class="cls-1" d="M475.17,9325.26C440,9505.4,372.58,9681.74,267.34,9873.32,194.13,10006.59,104.66,10144,0,10293.06v3.49c249.05-354.39,412.24-642.82,476.35-966.74C476,9328.29,475.56,9326.77,475.17,9325.26Z"/><path class="cls-1" d="M518.05,993.8c67.93,215.28,43.67,436.61-33.74,647.76l1.23,2.79a1304.77,1304.77,0,0,0,42.1-135.92C573,1326.38,570.39,1153,520,993.2a935.07,935.07,0,0,0-75-173.87c-.33.77-.65,1.55-1,2.32A932.47,932.47,0,0,1,518.05,993.8Z"/><path class="cls-1" d="M504,9068.45a1617.39,1617.39,0,0,1-27.89,252.09l1.17,4.59c44.38-227.88,39.78-473.52-18.38-772.12l-1.05,6.5C494.2,8748.39,509.14,8915.55,504,9068.45Z"/><path class="cls-1" d="M442.75,819.45l1-2.3C392.87,726.39,326.3,642.32,244.59,565.91,174.12,500,92.26,439.6,0,385.29v2.38C181.2,494.61,340.22,635.82,442.75,819.45Z"/><path class="cls-1" d="M456.73,8553.82q.52-3.22,1.06-6.46C386.53,8184.91,236.66,7744.44,0,7163.42v5.18c135.92,333.73,235,601.08,310.77,835.67C376.32,8207.31,424.66,8388.83,456.73,8553.82Z"/><path class="cls-1" d="M445,819.33l-1.22-2.18-1,2.3,1.23,2.2C444.3,820.88,444.62,820.1,445,819.33Z"/><path class="cls-1" d="M476.1,9320.54c-.3,1.58-.62,3.15-.93,4.72.39,1.51.78,3,1.18,4.55.31-1.56.62-3.12.92-4.68Z"/><path class="cls-1" d="M484.31,1641.56c-.35.94-.69,1.88-1,2.83l1.24,2.73,1-2.77Z"/><path class="cls-1" d="M458.89,8553c-.37-1.88-.73-3.76-1.1-5.65q-.54,3.24-1.06,6.46c.36,1.89.74,3.8,1.11,5.69Z"/></g></svg>